<svg t="1653574121901" class="icon" viewBox="0 0 1024 1024" version="1.1" xmlns="http://www.w3.org/2000/svg" p-id="1351" width="200" height="200"><path d="M512 14.8973037C238.59351703 14.8973037 14.8973037 238.59351703 14.8973037 512s223.69621333 497.1026963 497.1026963 497.1026963 497.1026963-223.69621333 497.1026963-497.1026963S785.40648297 14.8973037 512 14.8973037zM512 926.25224691c-231.98125827 0-414.25224691-182.27098864-414.25224691-414.25224691s182.27098864-414.25224691 414.25224691-414.25224691 414.25224691 182.27098864 414.25224691 414.25224691S743.98125827 926.25224691 512 926.25224691z" p-id="1352"></path><path d="M719.12612347 304.87387653c-16.57008987-16.57008987-41.42522469-16.57008987-57.99531458 0L512 454.00468543 362.86919111 304.87387653C346.29910124 288.30378667 321.44396642 288.30378667 304.87387653 304.87387653S288.30378667 346.29910124 304.87387653 362.86919111L454.00468543 512 304.87387653 661.13080889c-16.57008987 16.57008987-16.57008987 41.42522469 0 57.99531458s41.42522469 16.57008987 57.99531458 0L512 569.99531457l149.13080889 149.1308089c16.57008987 16.57008987 41.42522469 16.57008987 57.99531458 0s16.57008987-41.42522469 0-57.99531458L569.99531457 512l149.1308089-149.13080889C735.69621333 346.29910124 735.69621333 321.44396642 719.12612347 304.87387653z" p-id="1353"></path></svg>